<?xml version="1.0" encoding="UTF-8"?><svg id="_イヤー_2" xmlns="http://www.w3.org/2000/svg" viewBox="0 0 100.74 94.01"><defs><style>.cls-1{fill:#1c2e46;}.cls-2{fill:#e78bbf;}.cls-3{fill:#c0e9fd;}.cls-4{fill:#fff;stroke:#000;}.cls-4,.cls-5{stroke-miterlimit:10;}.cls-6{fill:#15ba8c;}.cls-5{fill:none;stroke:#1c2e46;}.cls-7{fill:#fcd350;}</style></defs><g id="_イン"><g id="icon_illust"><path class="cls-3" d="M98.93,36.52C94.43-35.23-33.52,14.3,8.44,75.18c18.45,26.77,27.74,1.12,40.28,.01,10.37-.92,53.55,14.56,50.21-38.67Zm-52.53,33.45c-3.11,0-5.63-2.52-5.63-5.63s2.52-5.63,5.63-5.63,5.63,2.52,5.63,5.63-2.52,5.63-5.63,5.63Z"/><path class="cls-6" d="M32.22,33.73c-7.13-5.89-2.1-19.29,8.73-13.54s-1.6,19.43-8.73,13.54Z"/><path class="cls-2" d="M16.48,55.11c-7.13-5.89-2.1-19.29,8.73-13.54s-1.6,19.43-8.73,13.54Z"/><path class="cls-7" d="M56.8,36.73c-7.13-5.89-2.1-19.29,8.73-13.54,10.83,5.75-1.6,19.43-8.73,13.54Z"/><g><rect class="cls-1" x="71.85" y="23.7" width="11.85" height="70.01" transform="translate(18.63 -18.74) rotate(15.58)"/><path class="cls-4" d="M99.84,18.11c-2.27,8.15-7.29,8.88-12.79,7.35-5.5-1.53-9.41-4.76-7.14-12.9S93.99,.58,93.99,.58c0,0,8.12,9.38,5.85,17.53Z"/><path class="cls-2" d="M99.84,18.11c-.94,3.35-2.21,1.44-3.48,.08-1.82-1.93-1.83-2.89-5.07-3.79-2.56-.71-3.84,.03-5.74,.65-2.46,.81-6.86,1.85-5.65-2.51,2.27-8.15,14.08-11.97,14.08-11.97,0,0,8.12,9.38,5.85,17.53Z"/><path class="cls-5" d="M99.84,18.11c-2.27,8.15-7.29,8.88-12.79,7.35-5.5-1.53-9.41-4.76-7.14-12.9S93.99,.58,93.99,.58c0,0,8.12,9.38,5.85,17.53Z"/></g></g></g></svg>