<?xml version="1.0" encoding="UTF-8"?><svg id="_イヤー_2" xmlns="http://www.w3.org/2000/svg" viewBox="0 0 137.48 102.8"><defs><style>.cls-1{fill:#fff;}.cls-2{fill:#1c2e46;}.cls-3{fill:#c0e9fd;}</style></defs><g id="_イン"><g id="icon_design"><rect id="_" class="cls-1" x="6" y="6" width="125.48" height="67.96"/><path class="cls-2" d="M137.48,79.96H0V0H137.48V79.96ZM6,73.96h125.48V6H6V73.96Z"/><rect class="cls-2" x="58.81" y="77.79" width="19.86" height="19.86"/><rect class="cls-2" x="39.24" y="97.65" width="59.01" height="5.15"/><path class="cls-3" d="M112.07,44.62H25.42V11.51H112.07V44.62Zm-85.65-1H111.07V12.51H26.42v31.11Z"/><rect class="cls-2" x="25.92" y="62.9" width="24.37" height=".93"/><rect class="cls-2" x="25.92" y="65.63" width="24.37" height=".93"/><rect class="cls-2" x="25.92" y="68.36" width="24.37" height=".93"/><path class="cls-3" d="M50.79,60.91H25.42v-12.01h25.37v12.01Zm-24.37-1h23.37v-10.01H26.42v10.01Z"/><rect class="cls-2" x="56.55" y="62.9" width="24.37" height=".93"/><rect class="cls-2" x="56.55" y="65.63" width="24.37" height=".93"/><rect class="cls-2" x="56.55" y="68.36" width="24.37" height=".93"/><path class="cls-3" d="M81.43,60.91h-25.37v-12.01h25.37v12.01Zm-24.37-1h23.37v-10.01h-23.37v10.01Z"/><rect class="cls-2" x="87.19" y="62.9" width="24.37" height=".93"/><rect class="cls-2" x="87.19" y="65.63" width="24.37" height=".93"/><rect class="cls-2" x="87.19" y="68.36" width="24.37" height=".93"/><path class="cls-3" d="M112.07,60.91h-25.37v-12.01h25.37v12.01Zm-24.37-1h23.37v-10.01h-23.37v10.01Z"/><rect class="cls-3" x="26.42" y="12.51" width="84.65" height="31.11"/><rect class="cls-3" x="25.42" y="48.9" width="24.37" height="12.01"/><rect class="cls-3" x="56.55" y="48.9" width="24.37" height="12.01"/><rect class="cls-3" x="87.69" y="48.9" width="24.37" height="12.01"/></g></g></svg>