<?xml version="1.0" encoding="UTF-8"?><svg id="pass" xmlns="http://www.w3.org/2000/svg" viewBox="0 0 460 280"><defs><style>.cls-1{fill:#3f3f3f;}.cls-1,.cls-2{stroke-width:0px;}.cls-2{fill:#fff;}</style></defs><rect class="cls-1" width="460" height="280"/><path class="cls-2" d="m80.91,163.18c-2.27-.57-1.93-2.5-.11-2.61,3.64-.23,7.62-1.02,11.71-2.27-.11-10.23-.45-12.39-2.5-15.12-2.5-3.18-.68-4.55,4.09-2.84,5.68,1.82,6.14,3.52,5.12,5.68-1.25,2.39-1.59,4.32-1.82,10.8,6.59-1.93,10.34-2.27,11.48-1.59,3.41,1.25,3.52,3.07.34,4.09-3.98,1.14-7.05,1.82-12.05,2.73v7.39c5.68-1.59,7.39-2.16,8.07-2.73,1.82-1.14,2.61-1.25,6.48.91,4.55,2.39,4.55,3.98,2.84,5.68-1.36,1.59-1.71,3.18-3.3,11.25-1.02,4.77-1.36,6.25-2.84,8.64-1.02,1.82-2.96,1.59-3.64.23-.68-1.25-2.16-1.36-7.62,0,0,3.3,0,6.71.11,9.78,2.73-.57,5.8-1.48,8.75-2.39,2.61-.8,4.43-1.02,7.16-.34,1.82.45.91,3.07-1.82,3.64-4.43.91-9.44,2.16-14.1,3.18.34,15.12.11,18.87-.79,24.44-.57,3.52-3.3,3.75-5.12.23-1.71-3.07-1.71-4.55-1.02-7.39,1.59-5.8,1.93-9.09,2.16-16.03-6.25,1.71-14.59,3.3-16.98,4.43-3.18,1.59-4.43,1.48-7.96-1.14-3.18-2.27-2.61-3.98.34-3.98,4.21,0,13.69-.8,24.71-3.41,0-2.27.11-5.68.11-9.89-3.07.57-5.57,1.14-7.5,1.59.11,1.71-.45,2.61-1.36,2.61-1.48.11-2.96-2.27-4.21-8.41-1.59-7.28-3.3-11.48-5.46-14.89-1.48-2.61.23-3.87,4.66-2.16,3.75-.57,8.98-1.59,13.75-2.84,0-2.39-.11-5-.11-7.39-5.34.8-8.18.8-11.59.11Zm5,21.49c-1.48-.46-1.71-1.48.11-1.93,2.96-.91,5-1.36,6.71-1.82-.11-2.27-.11-4.55-.11-7.16-3.3.8-7.62,1.71-11.48,2.27,1.14,4.77,2.61,11.37,3.64,17.17,3.18-.91,5.68-1.59,7.96-2.16v-6.59c-3.07.57-5.34.57-6.82.23Zm16.82-5.8c2.61.57,2.96,1.82,0,2.96-1.25.46-3.18,1.14-5.68,1.71v6.48c3.75-.8,5.12-.91,6.14-.57,1.02.46,2.05,0,2.39-2.05,1.14-5.57,1.59-8.75,1.71-13.41.11-2.96-.11-3.3-2.39-2.96-2.05.23-5.12.91-7.84,1.59v6.82c2.05-.68,4.09-1.02,5.68-.57Zm19.21,27.4c-3.3-1.02-2.73-2.5.11-2.73,6.37-.57,7.84-.8,10.91-1.71,0-7.96-.8-11.03-2.16-12.62-3.41-3.75-1.82-5,5.57-2.73,4.09,1.14,5.12,2.39,4.09,4.66-1.02,2.16-1.59,5-1.82,9.32,4.55-1.59,8.3-2.05,12.05-1.02,3.3.91,3.18,3.3-2.16,4.55-3.3.8-5.91,1.25-10.12,1.82l-.57,13.98c7.84-1.02,11.82-1.59,16.48-2.62,3.52-.68,7.5-.45,10.23,1.59,5.57,3.87,4.77,6.37-2.84,5.34-8.18-1.14-30.24-.23-43.65,2.84-5.68,1.25-6.82.8-10.57-2.16-2.05-1.59-1.82-2.62,2.39-2.39,3.75.23,13.07-.57,22.85-1.93l.23-13.75c-4.89.57-7.62.46-11.03-.46Zm-6.82-15.46c-4.32,1.25-5,.57-.91-2.16,7.62-4.89,13.87-10.23,18.87-16.71-8.64-7.62-10.12-8.87-13.41-9.78-4.09-1.02-3.75-2.96.68-3.41,2.61-.23,5.12.91,8.87,4.09,2.39,2.05,4.43,3.87,6.48,5.57,2.84-4.09,5.12-8.41,7.5-13.87,1.02-2.27.91-3.86-.57-3.75-1.14,0-2.39.57-5.57,1.59-8.3,2.96-10.46,2.5-12.85,1.48-2.84-1.14-2.96-2.39.11-2.73,5.46-.34,16.6-3.64,18.53-5.12,2.27-1.71,3.75-1.71,7.5.34,5,2.96,5.46,4.32,2.96,6.25-1.59,1.25-2.62,2.96-3.64,4.55-1.71,3.18-6.14,10.12-9.78,14.78,11.25,8.75,18.87,12.16,30.24,15.12,4.32,1.14,4.21,2.84-.46,3.41-15.57,1.59-16.82,1.25-21.83-3.98-4.43-4.66-7.5-7.73-10.91-10.91-6.37,7.28-17.96,13.98-21.83,15.23Z"/><path class="cls-2" d="m271.11,188.87c-6.82-1.14-15.23-1.93-25.46-1.71-.11,7.28-.11,14.89-.34,20.8-.23,12.05-1.71,26.96-3.75,32.65-1.02,2.84-2.05,2.5-2.84-.23-.68-2.39-.8-10.23-.57-15.01.34-7.62.68-25.03,1.02-37.99-2.84.11-5.68.34-8.75.68-1.71.11-4.89.57-8.53,1.14-2.73,19.21-10.91,31.03-26.71,37.51-2.5,1.02-2.84-.34-.8-1.82,11.94-8.64,18.76-19.33,21.03-34.79-7.73,1.02-15.46,2.16-16.6,2.5-6.03,1.71-7.62,1.71-11.94-.8-2.61-1.48-2.61-3.18,1.25-3.18.68,0,12.96-1.36,27.74-3.07.68-6.14,1.02-11.82,1.02-16.6-8.07,1.36-12.5.91-15.46-.57-3.18-1.71-3.07-3.3.46-3.3,3.18,0,8.64-.57,15-1.48-.23-7.5-1.36-12.85-3.52-15.69-2.27-3.18-.46-5.12,6.14-2.16,5.68,2.5,5.91,3.41,4.77,6.03-.57,1.36-1.14,7.05-1.14,10.91,5.91-.91,11.71-2.05,16.48-3.07v-5.57c-.23-9.66-1.14-13.3-2.73-14.55-2.5-2.16-1.71-4.66,2.5-3.41,9.21,2.73,9.89,4.21,8.75,6.48-1.02,2.5-1.82,6.82-2.27,15.57,6.93-1.48,12.62-1.48,15.92-.11,2.27.91,2.05,3.64-.34,4.43-2.05.57-9.89,1.71-15.8,2.39v17.28c6.14-.57,10.57-1.02,12.16-1.25,10.57-1.36,14.55-.8,17.62,1.59,5.23,4.21,2.62,7.73-4.32,6.37Zm-47.97-21.14c-.11,7.16-.34,12.96-.68,17.05,5.8-.68,11.6-1.36,16.82-1.93.11-6.25.23-12.28.34-17.39-5.8.57-11.59,1.48-16.48,2.27Z"/><path class="cls-2" d="m298.93,181.71c-3.3-2.73-5.34-5.12-8.3-10.34-1.59-2.73-1.02-3.41,1.59-2.62,9.55,2.96,11.25,4.32,11.94,8.53.8,5.34-2.16,7.05-5.23,4.43Zm12.39,9.43c-1.59,3.52-10.12,29.78-10.23,32.4-.45,7.5-2.27,7.84-7.73-1.14-3.87-6.48-3.18-7.96-1.02-8.53,2.5-.8,4.21-2.39,6.82-6.82,1.93-3.07,7.84-13.53,9.78-17.39,1.59-3.07,2.96-4.55,3.64-4.77,1.02-.34,1.59.34-1.25,6.25Zm-1.02-31.38c-2.61-1.82-7.96-7.28-10.46-11.03-1.48-2.27-.91-3.07,1.48-2.39,11.71,3.18,13.07,4.21,13.64,9.09.57,4.55-2.05,6.14-4.66,4.32Zm20.92,22.17c-.68,3.87-1.71,9.32-2.5,11.82-4.09,16.71-11.14,25.58-21.03,32.4-3.64,2.5-4.66,1.71-1.14-1.93,8.87-8.98,12.73-17.39,16.6-32.74,4.21-16.71,3.98-30.81,1.36-35.47-1.93-3.75.68-5.34,7.73-.68,7.39-.57,16.94-3.07,19.89-5.8,2.96-2.62,4.55-2.96,9.78-.57,5.91,2.73,6.37,3.64,3.52,6.37-2.73,2.5-5.34,8.53-6.93,16.82,4.09,2.27,3.98,3.98-1.71,5.68-3.75,1.25-8.87,2.5-14.44,3.52,9.55,15.12,14.32,21.83,16.26,23.76,8.53,8.64,21.78,15.16,33.15,18.35,3.87,1.14,3.75,2.73-.34,3.07-20.12,1.71-25.26.36-29.24-5.43-4.77-7.16-13.34-19.28-23.58-39.17-2.73.23-5.23.23-7.39,0Zm20.35-7.96c.68-1.71,1.59-4.89,2.27-9.89,1.25-9.55.57-9.89-4.43-8.19-6.59,2.05-11.82,2.84-15.92,2.73.11,5-.46,12.28-1.71,20.23,5.34-.45,13.87-2.5,19.78-4.89Z"/><path class="cls-2" d="m284.8,50.24c4.67-.2,6.95-1.34,6.85-3.42-.05-1.04.32-1.58,1.11-1.61.79-.03,1.23.8,1.32,2.5s-.9,3.04-2.97,4.04c-2.06.99-3.9,1.52-5.52,1.59-1.62.07-2.96.06-4.02-.03-11.14-.84-20.75-2.66-28.81-5.44-4.96,8-9.22,18.54-12.79,31.62-1.35,4.72-3.34,9.84-5.96,15.38-2.63,5.54-5.53,10.13-8.7,13.77-3.18,3.65-6.89,6.67-11.15,9.08-8.37,4.67-18.4,7.25-30.07,7.75-9.49.41-18.49-1.36-27-5.31-8.35-3.88-13.42-10.2-15.23-18.96-.21-1.17-.37-2.92-.49-5.24-.12-2.32.45-5.67,1.7-10.03,1.25-4.36,3.85-7.74,7.81-10.14,1.61-.97,2.83-1.48,3.66-1.51,1.36-.06,1.99.51,1.9,1.69-.28.36-1.03.97-2.23,1.82-1.2.85-2.35,1.74-3.43,2.65-1.09.91-2.15,2.3-3.19,4.15-1.8,3.14-2.61,6.61-2.42,10.43.44,8.74,4.02,15.33,10.74,19.77,3.6,2.49,7.58,4.33,11.94,5.54,4.36,1.2,8.69,1.71,12.99,1.53.15,0,.34-.01.57-.02,15.58-1.01,28.12-6.77,37.63-17.25,6.01-6.58,13.95-21.21,23.83-43.88,3.38-7.79,5.57-12.37,6.56-13.73-13.53-3.31-25.61-4.74-36.23-4.29-10.62.45-19.1,3.77-25.43,9.95-5.11,4.95-7.54,9.99-7.28,15.12.28,5.62,3.14,9.08,8.56,10.37,1.91.41,3.64.58,5.18.51,1.54-.07,3.3-.4,5.27-1.01,1.97-.61,3.84-1.76,5.6-3.48,1.77-1.71,3.08-3.38,3.94-5.01.86-1.64,1.19-2.87,1-3.7v-.21c.57-.51,1.09-.69,1.55-.54.46.16.71.58.74,1.27-.48,5.44-3.25,9.63-8.31,12.56-3.08,1.87-5.97,2.86-8.68,2.98-2.71.12-5.14-.13-7.28-.73-6.28-1.74-10.39-5.43-12.34-11.05-.62-1.78-.97-3.54-1.06-5.27-.21-4.16.98-8.28,3.57-12.35,4.62-7.29,12.2-11.89,22.75-13.8,2.39-.45,4.68-.72,6.87-.82,2.19-.09,4.73-.1,7.64-.01,2.91.09,6.79.61,11.63,1.59,4.84.97,9.81,2.13,14.9,3.48,5.09,1.35,8.13,2.14,9.12,2.37,3.48-4.32,6.13-6.55,7.93-6.7.37-.15.88-.24,1.52-.27.64-.03,1.17.44,1.6,1.39.42.96.2,1.59-.7,1.91-.38.09-.86.07-1.48-.04-.46-.26-1.37.21-2.7,1.42-1.34,1.2-2.32,2.2-2.96,2.99,7.19,1.78,13.48,3.02,18.87,3.73,5.39.71,9.26,1.01,11.6.91Z"/><path class="cls-2" d="m265.16,107.49c.1,1.94.9,2.88,2.41,2.82,3.54-.15,8.24-6.47,14.11-18.96.48-.99.93-1.39,1.35-1.2.42.19.65.46.66.8.02.35-.37,1.36-1.15,3.02-.78,1.67-1.57,3.27-2.36,4.79-.79,1.53-1.96,3.54-3.49,6.04-3.22,5-6.79,7.59-10.71,7.76-2.56.11-4.64-.77-6.25-2.65-.72-.87-1.13-2.09-1.2-3.65-.08-1.56.2-3.47.84-5.72.64-2.25,2.53-5.95,5.67-11.09.77-1.28,1.13-2.29,1.09-3.02-.04-.73-.7-1.07-1.97-1.01-1.28.06-3.65,1.72-7.11,5-5.19,4.81-10.12,11.91-14.78,21.28-.48,1.06-1.84,1.64-4.1,1.74-2.03.23-3.3.49-3.81.79,12.93-28.01,22.32-47.57,28.18-58.66,1.31-2.49,2.48-4.24,3.53-5.26,1.04-1.02,2.32-1.56,3.82-1.62.38-.02,1.17.04,2.39.16,1.21.12,2.12.14,2.72.04-2.15,2.25-5.9,8.37-11.25,18.37-5.35,10-10.44,20.14-15.28,30.43,3.33-4.24,6.35-7.57,9.06-9.98,2.71-2.41,6.05-4.73,10.01-6.95,3.96-2.22,6.89-3.37,8.77-3.45.45-.02.87.03,1.25.15-8.51,15.38-12.64,25.4-12.41,30.04Z"/><path class="cls-2" d="m285.71,95.25c-.93,2.41-1.33,5.06-1.18,7.98.1,1.94.64,3.47,1.64,4.57,1,1.1,2.36,1.62,4.1,1.55,6.85-.29,12.77-6.49,17.75-18.59.47-1.13,1.09-1.64,1.85-1.54.3.06.47.22.48.5.01.28-.74,2.14-2.27,5.57-1.53,3.44-3.1,6.23-4.73,8.39-3.6,5.02-8.22,7.65-13.87,7.9-3.01.13-5.62-.66-7.82-2.38-2.2-1.71-3.38-4.13-3.54-7.25-.16-3.12.48-6.47,1.93-10.04,1.44-3.57,3.48-6.93,6.12-10.07,2.63-3.14,5.72-5.48,9.27-7.02,1.7-.77,3.34-1.19,4.92-1.25,1.58-.07,3.08.29,4.47,1.06,1.33.92,2.02,1.96,2.08,3.14.21,4.16-2.3,8.27-7.53,12.31-1.6,1.25-3.88,2.41-6.85,3.48-2.97,1.07-5.24,1.63-6.82,1.7Zm18.15-17.46c-.07-1.39-.71-2.06-1.91-2-2.11.09-5.19,2.62-9.24,7.59-2.41,3.02-4.51,6.38-6.28,10.07,1.28-.06,3.12-.55,5.53-1.49,2.41-.94,4.48-2.14,6.22-3.6,3.98-3.44,5.88-6.96,5.7-10.57Z"/></svg>