<?xml version="1.0" encoding="UTF-8"?><svg id="_イヤー_2" xmlns="http://www.w3.org/2000/svg" viewBox="0 0 137.48 79.96"><defs><style>.cls-1{fill:#fff;}.cls-2{fill:#1c2e46;}.cls-3{fill:none;stroke:#1c2e46;stroke-miterlimit:10;stroke-width:4px;}.cls-4{fill:#fcb660;}</style></defs><g id="_イン"><g id="icon_movie"><rect class="cls-1" x="5.92" y="4.96" width="125.56" height="69"/><path class="cls-2" d="M137.48,79.96H0V0H137.48V79.96ZM6,73.96h125.48V6H6V73.96Z"/><circle class="cls-4" cx="68.74" cy="39.98" r="26.26"/><path class="cls-1" d="M80.76,38.32l-18.76-10.83c-1.27-.74-2.87,.18-2.87,1.66v21.66c0,1.47,1.59,2.39,2.87,1.66l18.76-10.83c1.27-.74,1.27-2.58,0-3.31Z"/><g><rect class="cls-3" x="6" y="6" width="18.27" height="13.59"/><rect class="cls-3" x="6" y="19.59" width="18.27" height="13.59"/><rect class="cls-3" x="6" y="33.18" width="18.27" height="13.59"/><rect class="cls-3" x="6" y="46.78" width="18.27" height="13.59"/><rect class="cls-3" x="6" y="60.37" width="18.27" height="13.59"/></g><g><rect class="cls-3" x="113.21" y="6" width="18.27" height="13.59"/><rect class="cls-3" x="113.21" y="19.59" width="18.27" height="13.59"/><rect class="cls-3" x="113.21" y="33.18" width="18.27" height="13.59"/><rect class="cls-3" x="113.21" y="46.78" width="18.27" height="13.59"/><rect class="cls-3" x="113.21" y="60.37" width="18.27" height="13.59"/></g></g></g></svg>