<?xml version="1.0" encoding="UTF-8"?><svg id="_イヤー_2" xmlns="http://www.w3.org/2000/svg" viewBox="0 0 137.48 102.8"><defs><style>.cls-1{fill:#fff;}.cls-2{fill:#1c2e46;}.cls-3{fill:#15ba8c;}</style></defs><g id="_イン"><g id="icon_coding"><rect class="cls-1" x="6" y="6" width="125.48" height="67.96"/><path class="cls-2" d="M137.48,79.96H0V0H137.48V79.96ZM6,73.96h125.48V6H6V73.96Z"/><rect class="cls-2" x="58.81" y="77.79" width="19.86" height="19.86"/><rect class="cls-2" x="39.24" y="97.65" width="59.01" height="5.15"/><g><g><polygon class="cls-3" points="51.78 27.56 27.95 42.29 27.95 37.67 51.78 22.94 51.78 27.56"/><polygon class="cls-3" points="27.95 42.29 51.78 57.02 51.78 52.4 27.95 37.67 27.95 42.29"/></g><g><polygon class="cls-3" points="85.71 52.4 109.53 37.67 109.53 42.29 85.71 57.02 85.71 52.4"/><polygon class="cls-3" points="109.53 37.67 85.71 22.94 85.71 27.56 109.53 42.29 109.53 37.67"/></g><polygon class="cls-3" points="59.85 57.02 82.64 22.94 77.64 22.94 54.84 57.02 59.85 57.02"/></g></g></g></svg>