<svg width="70" height="70" viewBox="0 0 70 70" fill="none" xmlns="http://www.w3.org/2000/svg">
<path d="M9.0625 45.0312C9.83333 44.6979 10.7292 44.4792 11.75 44.375C13.2292 44.2083 14.3333 43.8542 15.0625 43.3125C15.625 42.1667 15.9062 39.25 15.9062 34.5625V29.625L15.9688 26.6562L15.9062 24.4688L15.9688 20.4375L15.875 10.2812C15.875 9.13542 15.7083 8.38542 15.375 8.03125C14.8958 7.51042 13.625 7.03125 11.5625 6.59375C10.7083 6.40625 10.1875 6.23958 10 6.09375C9.8125 5.92708 9.69792 5.625 9.65625 5.1875C10.1354 5.08333 10.4688 5.03125 10.6562 5.03125H12.875L14.0312 5C14.8021 5 15.6562 5.08333 16.5938 5.25C18.5104 5.375 20.4792 5.4375 22.5 5.4375C23.0833 5.4375 23.9167 5.40625 25 5.34375C27.875 5.17708 29.9375 5.09375 31.1875 5.09375C33.7083 5.09375 36.0833 5.34375 38.3125 5.84375C40.5625 6.34375 42.875 7.27083 45.25 8.625C46.7292 9.47917 48.2396 10.8333 49.7812 12.6875C51.3438 14.5208 52.5208 16.5312 53.3125 18.7188C54.125 20.8854 54.5312 23.3333 54.5312 26.0625C54.5312 28.5 54.0833 30.9167 53.1875 33.3125C52.3125 35.7083 51.0833 37.7917 49.5 39.5625C47.9167 41.3125 46.3125 42.6354 44.6875 43.5312C43.0625 44.4062 40.5833 45.1667 37.25 45.8125C35.875 46.0625 33.4062 46.1875 29.8438 46.1875C27.4896 46.1875 25.5729 46.1146 24.0938 45.9688C23.5104 45.8854 22.8854 45.8438 22.2188 45.8438C22.1146 45.8438 22 45.8542 21.875 45.875L9.125 46.0938L9.0625 45.8438C9.02083 45.7396 9 45.625 9 45.5L9.0625 45.0312ZM24.9688 43.8125C26.5521 44.3542 28.1562 44.625 29.7812 44.625C31.8854 44.625 33.9479 44.3021 35.9688 43.6562C37.9896 42.9896 39.7708 42.0625 41.3125 40.875C42.875 39.6667 44.1562 38.3125 45.1562 36.8125C46.1562 35.2917 46.8646 33.9271 47.2812 32.7188C47.8646 30.9479 48.1562 28.6458 48.1562 25.8125C48.1562 23.1042 47.5833 20.3542 46.4375 17.5625C45.6458 15.625 44.25 13.7708 42.25 12C40.2708 10.2292 37.9271 8.9375 35.2188 8.125C32.5104 7.29167 29.5833 6.875 26.4375 6.875C24.2708 6.875 22.6667 7.11458 21.625 7.59375C21.5 7.71875 21.375 7.86458 21.25 8.03125C21.125 8.55208 21.0625 9.03125 21.0625 9.46875C21.0625 9.73958 21.0729 10.0625 21.0938 10.4375C21.1562 12.8542 21.1875 14.7917 21.1875 16.25L21.1562 23.3438C21.1562 33.7604 21.3438 39.5625 21.7188 40.75C22.1146 41.9167 23.1979 42.9375 24.9688 43.8125Z" fill="#2B2B2B"/>
<path d="M59.5 24.0938C59.6667 25.4688 59.75 26.2604 59.75 26.4688L59.625 29.25C59.5833 30.4375 59.5312 31.1979 59.4688 31.5312C59.2812 31.6146 59.125 31.6562 59 31.6562L58.7188 31.5938C58.0521 28.6771 56.9167 26.5521 55.3125 25.2188C53.7292 23.8854 51.7917 23.2188 49.5 23.2188C47.125 23.2188 45.1771 23.8854 43.6562 25.2188C42.1354 26.5521 41.375 28.1042 41.375 29.875C41.375 31.2292 41.9062 32.4688 42.9688 33.5938C44.0312 34.7188 46.75 36.4062 51.125 38.6562C54.4583 40.3854 56.8438 41.8021 58.2812 42.9062C59.7188 43.9896 60.8021 45.25 61.5312 46.6875C62.2604 48.125 62.625 49.7292 62.625 51.5C62.625 53.7292 62.0417 55.8229 60.875 57.7812C59.7292 59.7396 58.1771 61.2188 56.2188 62.2188C54.2604 63.1979 51.6667 63.6875 48.4375 63.6875C45.625 63.6875 42.9271 63.2396 40.3438 62.3438C38.8229 61.8021 37.8958 61.3646 37.5625 61.0312C37.2292 60.6979 37.0625 60.3438 37.0625 59.9688C37.0625 59.7396 37.0833 59.4479 37.125 59.0938C37.4167 56.6354 37.5729 54.6146 37.5938 53.0312C37.6354 52.0521 37.7083 51.4792 37.8125 51.3125C37.8958 51.1667 38.0521 51.0938 38.2812 51.0938C38.4688 51.0938 38.6146 51.1667 38.7188 51.3125C38.8438 51.4375 38.9271 51.6875 38.9688 52.0625C39.1979 54.625 40.3854 56.9167 42.5312 58.9375C44.6562 60.9583 47.0625 61.9688 49.75 61.9688C51.3958 61.9688 52.9062 61.625 54.2812 60.9375C55.6771 60.25 56.7604 59.2604 57.5312 57.9688C58.3229 56.6562 58.7188 55.3854 58.7188 54.1562C58.7188 52.4688 58.125 50.9271 56.9375 49.5312C55.75 48.1354 53.3646 46.5104 49.7812 44.6562C46.1979 42.7812 43.8646 41.4167 42.7812 40.5625C41.0312 39.1667 39.7188 37.6875 38.8438 36.125C38.1979 34.9167 37.875 33.5104 37.875 31.9062C37.875 29.0104 39.0208 26.5625 41.3125 24.5625C43.6042 22.5417 46.6771 21.5312 50.5312 21.5312C52.6562 21.5312 54.4896 21.7708 56.0312 22.25C57.1562 22.625 58.3125 23.2396 59.5 24.0938Z" fill="#2B2B2B"/>
</svg>
